<?xml version="1.0" standalone="no"?>
<!DOCTYPE svg PUBLIC "-//W3C//DTD SVG 20010904//EN"
 "http://www.w3.org/TR/2001/REC-SVG-20010904/DTD/svg10.dtd">
<svg version="1.0" xmlns="http://www.w3.org/2000/svg"
 width="720.000000pt" height="720.000000pt" viewBox="0 0 720.000000 720.000000"
 preserveAspectRatio="xMidYMid meet">
<metadata>
Created by potrace 1.11, written by Peter Selinger 2001-2013
</metadata>
<g transform="translate(0.000000,720.000000) scale(0.100000,-0.100000)"
fill="#000000" stroke="none">
<path d="M3150 7186 c-539 -78 -922 -365 -1195 -896 -214 -418 -331 -895 -425
-1730 -46 -414 -54 -451 -118 -575 -48 -92 -161 -205 -266 -264 -173 -98 -419
-157 -701 -169 l-160 -7 86 -48 c108 -59 247 -118 364 -152 117 -35 306 -45
406 -21 71 16 153 51 207 86 17 12 32 20 32 17 0 -10 -127 -86 -185 -112 -132
-58 -335 -85 -503 -68 l-84 9 7 -35 c9 -51 53 -178 80 -231 13 -25 41 -70 64
-100 108 -144 264 -209 499 -210 103 0 113 -2 108 -17 -2 -10 -10 -37 -17 -60
-30 -106 -101 -143 -276 -143 -103 0 -104 0 -92 -21 20 -39 171 -188 242 -242
39 -28 142 -88 228 -132 l158 -81 -377 -114 c-207 -62 -399 -125 -427 -138
-191 -94 -390 -302 -503 -528 -70 -139 -103 -231 -247 -688 l-48 -148 79 -80
c106 -108 212 -192 295 -234 l69 -34 1264 2 c695 2 1268 6 1272 10 4 4 -83
498 -193 1098 l-200 1091 29 81 c43 121 58 229 58 413 l0 163 -76 69 c-42 37
-141 136 -219 218 l-142 151 -27 139 c-56 294 -84 559 -120 1115 l-23 355 31
33 c45 48 102 79 181 98 122 28 239 3 320 -68 29 -26 49 -37 53 -30 4 6 57 96
117 201 l110 189 6 -86 c4 -48 10 -165 14 -259 7 -157 13 -196 28 -160 5 11
893 1336 904 1347 12 13 239 -125 381 -231 522 -392 747 -961 682 -1724 -20
-227 -79 -576 -140 -825 -10 -41 -21 -87 -24 -101 -4 -17 -42 -57 -108 -114
-57 -49 -104 -91 -106 -95 -1 -3 8 -182 22 -396 13 -214 22 -402 19 -417 -5
-24 -10 -28 -36 -25 l-31 3 -333 -1110 c-183 -611 -332 -1110 -333 -1111 0 0
17 -6 38 -13 28 -9 373 -11 1463 -9 l1425 3 66 34 c36 18 99 60 140 92 40 33
108 88 150 122 43 34 78 67 78 73 0 19 -220 535 -294 689 -192 396 -395 638
-618 734 -25 10 -268 81 -539 155 -272 75 -497 138 -501 139 -4 1 18 31 48 67
255 299 406 709 454 1235 14 153 14 580 0 755 -32 410 -105 882 -186 1205
-112 447 -281 817 -508 1113 -96 126 -293 317 -416 404 -239 170 -538 285
-862 334 -145 21 -497 27 -618 10z"/>
</g>
</svg>
